<svg width="512" height="512" viewBox="0 0 512 512" fill="none" xmlns="http://www.w3.org/2000/svg">
<path d="M509.601 63.8536C511.127 73.1055 511.905 82.0967 511.935 90.8273C511.995 111.011 512.009 144.972 511.98 192.709C511.819 193.253 511.628 193.607 511.407 193.769C511.109 193.989 510.96 193.916 510.96 193.551V193.152C510.96 192.532 510.868 192.564 510.683 193.247C510.588 193.618 510.406 193.94 510.138 194.212C509.911 194.449 509.589 194.589 509.172 194.629C507.551 194.785 505.962 194.635 504.406 194.177C502.851 193.719 501.587 193.494 500.615 193.499C488.214 193.569 475.562 193.908 463.456 193.83C438.82 193.679 410.805 193.673 379.409 193.812C374.772 193.83 371.246 193.896 368.832 194.012C368.718 194.018 368.62 194.044 368.537 194.09C368.465 194.131 368.397 194.177 368.331 194.229C368.212 194.328 368.078 194.38 367.929 194.386L363.494 194.664C363.378 194.67 363.264 194.636 363.172 194.568C362.188 193.885 361.107 193.699 359.926 194.012C359.628 194.087 359.33 194.096 359.032 194.038L356.269 193.491C356.073 193.456 355.974 193.537 355.974 193.734V194.108C355.973 194.199 355.943 194.287 355.89 194.362C355.837 194.437 355.762 194.494 355.675 194.528C355.588 194.561 355.492 194.569 355.401 194.55C355.31 194.531 355.226 194.486 355.161 194.42C353.879 193.1 352.535 193.033 351.128 194.221C350.866 194.435 350.726 194.707 350.708 195.037C350.672 195.576 350.517 196.074 350.243 196.532C350.064 196.822 350.136 197.033 350.458 197.167C351.298 197.497 351.832 198.125 352.058 199.052C352.084 199.159 352.079 199.271 352.042 199.375C352.006 199.479 351.94 199.571 351.852 199.64C351.764 199.709 351.658 199.752 351.546 199.765C351.433 199.778 351.32 199.76 351.218 199.713L350.458 199.356C350.249 199.258 350.103 199.101 350.02 198.887C349.704 198.007 349.066 197.363 348.106 196.958C347.856 196.854 347.787 196.683 347.9 196.445L348.035 196.167C348.112 196.005 348.1 195.846 347.999 195.689L346.363 193.239C346.249 193.071 346.103 192.937 345.924 192.839L345.138 192.396C344.869 192.251 344.643 192.057 344.458 191.813C343.117 190.087 342.5 189.977 342.607 191.483L340.596 189.076C340.345 188.775 340.119 188.792 339.916 189.128L334.65 197.949C333.553 198.377 332.671 198.499 332.003 198.314C331.699 198.227 331.529 198.027 331.493 197.714C331.434 197.233 331.201 196.938 330.796 196.828C330.128 196.648 329.783 196.55 329.759 196.532C329.079 196.103 328.829 195.46 329.008 194.603C329.049 194.406 328.969 194.325 328.766 194.36L326.451 194.785C340.715 171.05 353.96 146.762 366.185 121.92C366.322 121.648 366.26 121.596 365.997 121.764C337.553 139.85 309.638 158.913 282.254 178.952C279.316 178.338 277.683 175.893 277.355 171.618C277.332 171.328 277.195 171.052 276.97 170.845C276.386 170.306 276.356 169.816 276.881 169.376C277.161 169.138 277.161 168.904 276.881 168.672C276.619 168.452 276.231 168.42 275.719 168.576L291.348 158.322C291.431 158.267 291.497 158.191 291.539 158.101C291.58 158.012 291.595 157.913 291.582 157.816C291.569 157.718 291.529 157.626 291.465 157.55C291.402 157.474 291.318 157.416 291.222 157.384C252.373 144.783 210.663 154.942 181.595 182.932C181.571 182.666 181.386 182.521 181.041 182.498C180.772 182.475 180.531 182.544 180.316 182.706C178.528 184.074 177.118 185.745 176.087 187.721C175.953 187.977 175.749 188.23 175.506 188.438C175.263 188.646 174.996 188.799 174.745 188.874C174.493 188.948 174.272 188.939 174.116 188.848C173.959 188.758 173.876 188.59 173.879 188.372V187.912C173.878 187.841 173.893 187.77 173.923 187.705C173.953 187.64 173.996 187.581 174.051 187.533C174.106 187.485 174.17 187.448 174.241 187.425C174.311 187.402 174.386 187.393 174.46 187.399C174.865 187.44 175.044 187.263 174.996 186.869C174.978 186.753 174.916 186.718 174.809 186.765L174.29 186.964C174.25 186.978 174.207 186.981 174.165 186.972C174.124 186.963 174.086 186.943 174.056 186.914C174.026 186.885 174.005 186.848 173.996 186.807C173.987 186.767 173.989 186.725 174.004 186.686L174.397 185.748C174.505 185.499 174.683 185.429 174.934 185.539L175.712 185.887C175.771 185.91 175.798 185.893 175.792 185.835C175.774 185.58 175.622 185.368 175.336 185.2C174.984 184.25 174.329 183.578 173.369 183.184C173.047 183.057 172.868 182.825 172.833 182.489L172.448 179.022C172.418 178.779 172.281 178.628 172.037 178.57C170.272 178.153 168.6 178.266 167.021 178.909C166.639 179.065 166.562 179.311 166.788 179.648L166.976 179.934C167.022 180.001 167.043 180.082 167.036 180.162C167.029 180.243 166.994 180.318 166.937 180.377C166.88 180.435 166.804 180.473 166.722 180.484C166.639 180.496 166.556 180.479 166.484 180.438L165.993 180.152C165.943 180.125 165.885 180.117 165.83 180.126C165.774 180.136 165.723 180.164 165.686 180.205C165.649 180.247 165.627 180.299 165.624 180.354C165.621 180.409 165.638 180.463 165.671 180.508C165.712 180.56 165.769 180.609 165.841 180.656C165.935 180.722 166 180.82 166.023 180.93C166.047 181.041 166.027 181.156 165.968 181.253C165.908 181.35 165.813 181.422 165.702 181.454C165.591 181.487 165.471 181.478 165.367 181.429L163.239 180.291C163.14 180.234 163.063 180.146 163.021 180.042C162.98 179.938 162.976 179.823 163.01 179.716C163.044 179.609 163.115 179.517 163.21 179.454C163.305 179.391 163.419 179.361 163.534 179.369L164.839 179.5C164.89 179.503 164.94 179.49 164.982 179.464C165.024 179.437 165.056 179.397 165.073 179.351C165.091 179.305 165.092 179.255 165.077 179.208C165.062 179.161 165.032 179.12 164.991 179.091C164.896 179.033 164.765 178.999 164.598 178.987C162.804 178.906 161 178.889 159.188 178.935C159.144 178.936 159.1 178.927 159.059 178.91C159.019 178.892 158.983 178.865 158.956 178.832C158.928 178.8 158.909 178.761 158.899 178.72C158.89 178.679 158.891 178.637 158.902 178.596C158.938 178.44 158.825 178.347 158.562 178.318C158.467 178.306 158.384 178.335 158.312 178.405L158.133 178.579C157.943 178.764 157.737 178.779 157.516 178.622C156.813 178.101 156.077 177.959 155.308 178.196C155.028 178.283 154.777 178.234 154.557 178.049C152.974 176.728 151.758 178.865 150.104 177.779C149.884 177.634 149.645 177.562 149.389 177.562L99.9979 177.466C96.9672 177.461 93.8957 177.519 90.8064 177.64C90.0792 177.663 87.4505 177.562 82.9203 177.336C80.3691 177.209 77.7434 177.191 75.0431 177.284C62.299 177.701 49.5549 177.643 36.8107 177.11C33.7409 176.977 30.5668 177 27.2884 177.18C22.8834 177.417 19.7003 177.475 17.7393 177.353C11.8202 176.971 7.03371 177.139 3.37976 177.857C3.31419 177.869 3.25756 177.898 3.20987 177.944L2.91481 178.231C2.83136 178.312 2.74494 178.312 2.65552 178.231L2.12799 177.718C2.09805 177.69 2.06091 177.669 2.02023 177.658C1.97955 177.648 1.93676 177.648 1.89609 177.659C1.85543 177.669 1.81831 177.69 1.78841 177.719C1.75851 177.747 1.73687 177.783 1.72564 177.823C1.6243 178.217 1.4127 178.55 1.09082 178.822C0.876234 179.007 0.76595 179.239 0.759989 179.517L0.348704 196.158C0.16392 159.382 0.241405 122.606 0.581169 85.8305C0.724227 70.6839 3.83575 54.5901 11.239 41.2509C26.2244 14.2338 54.1566 0.286368 85.4685 0.234229C197.603 0.0488424 309.74 -0.0264659 421.88 0.00829397C435.452 0.00829397 448.784 1.38131 461.149 6.40412C486.983 16.8958 503.134 36.0456 509.601 63.8536ZM165.353 146.433C166.208 146.24 167.015 145.879 167.726 145.371C168.438 144.863 169.04 144.218 169.499 143.473C169.959 142.728 170.265 141.897 170.402 141.028C170.539 140.159 170.504 139.269 170.298 138.409C169.882 136.671 168.797 135.16 167.281 134.208C165.765 133.256 163.943 132.94 162.216 133.331C161.36 133.525 160.554 133.886 159.842 134.394C159.131 134.902 158.528 135.547 158.069 136.292C157.61 137.037 157.303 137.868 157.166 138.736C157.029 139.605 157.064 140.495 157.27 141.355C157.686 143.093 158.771 144.604 160.287 145.556C161.803 146.508 163.625 146.824 165.353 146.433Z" fill="black"/>
<path d="M326.451 194.785C317.963 208.203 310.035 219.729 302.667 229.363C278.249 261.29 247.295 288.125 212.871 312.874C197.403 323.991 181.884 335.111 166.315 346.234C166.958 344.427 167.73 343.109 168.63 342.28C169.989 341.029 173.074 339.925 174.871 337.875C175.348 337.33 175.893 336.867 176.507 336.484C177.998 335.563 178.868 335.001 179.118 334.798C182.456 332.006 185.917 329.356 189.499 326.847C189.743 326.679 190.015 326.575 190.313 326.534C191.767 326.36 192.774 325.587 193.335 324.214C193.37 324.132 193.379 324.041 193.362 323.953C193.345 323.866 193.302 323.785 193.239 323.721C193.175 323.656 193.094 323.611 193.005 323.591C192.915 323.57 192.822 323.575 192.736 323.606C192.265 323.762 191.97 323.646 191.85 323.258C191.761 322.974 191.567 322.861 191.269 322.919C190.542 323.064 190.181 322.719 190.187 321.885C190.187 321.78 190.15 321.679 190.081 321.598C190.013 321.517 189.918 321.462 189.812 321.442C188.548 321.204 187.884 320.503 187.818 319.339C187.794 318.928 187.574 318.716 187.156 318.705L182.874 318.574C182.647 318.568 182.453 318.484 182.292 318.322L182.078 318.114C181.839 317.888 181.556 317.786 181.228 317.809C180.066 317.896 179.014 317.668 178.072 317.123C177.852 316.996 177.667 316.932 177.518 316.932C177.345 316.926 177.178 316.964 177.017 317.045C176.749 317.184 176.484 317.178 176.221 317.027L172.994 315.133C172.743 314.988 172.66 314.78 172.743 314.507C172.97 313.789 172.707 313.294 171.956 313.021C171.772 312.958 171.727 312.839 171.822 312.665L171.938 312.448C171.979 312.376 171.991 312.292 171.973 312.213C171.955 312.133 171.908 312.062 171.84 312.013L169.98 310.666C178.504 293.941 188.021 277.821 198.53 262.307C220.829 229.406 250.075 202.737 282.254 178.952C309.638 158.913 337.553 139.85 365.997 121.764C366.26 121.596 366.322 121.648 366.185 121.92C353.96 146.762 340.715 171.05 326.451 194.785Z" fill="#FCFBFB"/>
<path d="M157.27 141.355C158.136 144.973 161.755 147.247 165.353 146.433C168.95 145.62 171.164 142.027 170.298 138.409C169.432 134.791 165.813 132.518 162.216 133.331C158.618 134.145 156.404 137.737 157.27 141.355Z" fill="#FCFBFB"/>
<path d="M275.719 168.576C274.377 169.367 273.421 169.819 271.758 169.602C226.497 163.849 185.77 189.25 171.5 230.858C165.107 249.506 166.064 268.337 170.803 287.238C171.751 291.036 164.24 302.784 162.112 306.373C162.075 306.44 162.019 306.495 161.951 306.533C161.884 306.57 161.806 306.589 161.728 306.586C161.65 306.583 161.575 306.559 161.51 306.517C161.445 306.475 161.394 306.416 161.361 306.347C140.993 265.079 148.423 215.893 181.595 182.932C210.663 154.942 252.373 144.783 291.222 157.384C291.318 157.416 291.402 157.474 291.465 157.55C291.529 157.626 291.569 157.718 291.582 157.816C291.595 157.913 291.58 158.012 291.539 158.101C291.497 158.191 291.431 158.267 291.348 158.322L275.719 168.576Z" fill="#FCFBFB"/>
<path d="M275.719 168.576C276.231 168.42 276.619 168.452 276.881 168.672C277.161 168.904 277.161 169.138 276.881 169.376C276.356 169.816 276.386 170.306 276.97 170.845C277.195 171.052 277.332 171.328 277.355 171.618C277.683 175.893 279.316 178.338 282.254 178.952C250.075 202.737 220.829 229.406 198.53 262.307C188.021 277.821 178.504 293.941 169.98 310.666C161.069 327.247 152.59 344.068 144.543 361.129C144.532 361.157 144.53 361.187 144.538 361.216C144.546 361.245 144.563 361.27 144.587 361.289C144.611 361.307 144.641 361.318 144.671 361.319C144.702 361.32 144.732 361.311 144.757 361.294L166.315 346.234C181.884 335.111 197.403 323.991 212.871 312.874C247.295 288.125 278.249 261.29 302.667 229.363C310.035 219.729 317.963 208.203 326.451 194.785L328.766 194.36C328.969 194.325 329.049 194.406 329.008 194.603C328.829 195.46 329.079 196.103 329.759 196.532C329.783 196.55 330.128 196.648 330.796 196.828C331.201 196.938 331.434 197.233 331.493 197.714C331.529 198.027 331.699 198.227 332.003 198.314C332.671 198.499 333.553 198.377 334.65 197.949L331.789 203.371C331.645 203.643 331.663 203.901 331.842 204.145C358.666 240.86 355.465 288.837 322.901 321.225C290.158 352.7 239.435 355.819 202.66 329.758C202.433 329.599 202.161 329.513 201.882 329.511C201.603 329.51 201.331 329.593 201.105 329.75L188.033 338.796C187.958 338.848 187.896 338.916 187.853 338.995C187.81 339.075 187.787 339.162 187.785 339.252C187.783 339.341 187.803 339.43 187.843 339.511C187.883 339.592 187.942 339.662 188.015 339.717C214.087 359.73 246.892 368.281 279.706 362.128C301.713 357.575 320.427 347.521 335.848 331.965C375.091 292.391 376.324 234.759 342.607 191.483C342.5 189.977 343.117 190.087 344.458 191.813C344.643 192.057 344.869 192.251 345.138 192.396L345.924 192.839C346.103 192.937 346.249 193.071 346.363 193.239L347.999 195.689C348.1 195.846 348.112 196.005 348.035 196.167L347.9 196.445C347.787 196.683 347.856 196.854 348.106 196.958C349.066 197.363 349.704 198.007 350.02 198.887C350.103 199.101 350.249 199.258 350.458 199.356L351.218 199.713C351.32 199.76 351.433 199.778 351.546 199.765C351.658 199.752 351.764 199.709 351.852 199.64C351.94 199.571 352.006 199.479 352.042 199.375C352.079 199.271 352.084 199.159 352.058 199.052C351.832 198.125 351.298 197.497 350.458 197.167C350.136 197.033 350.064 196.822 350.243 196.532C350.517 196.074 350.672 195.576 350.708 195.037C350.726 194.707 350.866 194.435 351.128 194.221C352.535 193.033 353.879 193.1 355.161 194.42C355.226 194.486 355.31 194.531 355.401 194.55C355.492 194.569 355.588 194.561 355.675 194.528C355.762 194.494 355.837 194.437 355.89 194.362C355.943 194.287 355.973 194.199 355.974 194.108V193.734C355.974 193.537 356.073 193.456 356.269 193.491L359.032 194.038C359.33 194.096 359.628 194.087 359.926 194.012C361.107 193.699 362.188 193.885 363.172 194.568C363.264 194.636 363.378 194.67 363.494 194.664L367.929 194.386C368.078 194.38 368.212 194.328 368.331 194.229C368.397 194.177 368.465 194.131 368.537 194.09C368.62 194.044 368.718 194.018 368.832 194.012C371.246 193.896 374.772 193.83 379.409 193.812C410.805 193.673 438.82 193.679 463.456 193.83C475.562 193.908 488.214 193.569 500.615 193.499C501.587 193.494 502.851 193.719 504.406 194.177C505.962 194.635 507.551 194.785 509.172 194.629C509.589 194.589 509.911 194.449 510.138 194.212C510.406 193.94 510.588 193.618 510.683 193.247C510.868 192.564 510.96 192.532 510.96 193.152V193.551C510.96 193.916 511.109 193.989 511.407 193.769C511.628 193.607 511.819 193.253 511.98 192.709L511.98 356.81C512.01 378.634 512.007 400.48 511.971 422.35C511.917 456.432 499.328 486.491 467.193 503.219C456.339 508.305 444.885 511.173 432.833 511.822C431.974 511.868 426.016 511.897 414.959 511.909C306.914 512.031 198.872 512.031 90.8332 511.909C82.7743 511.897 76.8224 511.645 72.9777 511.153C46.6907 507.764 23.5868 493.304 11.391 470.249C-0.876243 447.064 0.831527 421.994 0.348705 397.166L0 366.908L0.348704 196.158L0.759989 179.517C0.76595 179.239 0.876234 179.007 1.09082 178.822C1.4127 178.55 1.6243 178.217 1.72564 177.823C1.73687 177.783 1.75851 177.747 1.78841 177.719C1.81831 177.69 1.85543 177.669 1.89609 177.659C1.93676 177.648 1.97955 177.648 2.02023 177.658C2.06091 177.669 2.09805 177.69 2.12799 177.718L2.65552 178.231C2.74494 178.312 2.83136 178.312 2.91481 178.231L3.20987 177.944C3.25756 177.898 3.31419 177.869 3.37976 177.857C7.03371 177.139 11.8202 176.971 17.7393 177.353C19.7003 177.475 22.8834 177.417 27.2884 177.18C30.5668 177 33.7409 176.977 36.8107 177.11C49.5549 177.643 62.299 177.701 75.0431 177.284C77.7434 177.191 80.3691 177.209 82.9203 177.336C87.4505 177.562 90.0792 177.663 90.8064 177.64C93.8957 177.519 96.9672 177.461 99.9979 177.466L149.389 177.562C149.645 177.562 149.884 177.634 150.104 177.779C151.758 178.865 152.974 176.728 154.557 178.049C154.777 178.234 155.028 178.283 155.308 178.196C156.077 177.959 156.813 178.101 157.516 178.622C157.737 178.779 157.943 178.764 158.133 178.579L158.312 178.405C158.384 178.335 158.467 178.306 158.562 178.318C158.825 178.347 158.938 178.44 158.902 178.596C158.891 178.637 158.89 178.679 158.899 178.72C158.909 178.761 158.928 178.8 158.956 178.832C158.983 178.865 159.019 178.892 159.059 178.91C159.1 178.927 159.144 178.936 159.188 178.935C161 178.889 162.804 178.906 164.598 178.987C164.765 178.999 164.896 179.033 164.991 179.091C165.032 179.12 165.062 179.161 165.077 179.208C165.092 179.255 165.091 179.305 165.073 179.351C165.056 179.397 165.024 179.437 164.982 179.464C164.94 179.49 164.89 179.503 164.839 179.5L163.534 179.369C163.419 179.361 163.305 179.391 163.21 179.454C163.115 179.517 163.044 179.609 163.01 179.716C162.976 179.823 162.98 179.938 163.021 180.042C163.063 180.146 163.14 180.234 163.239 180.291L165.367 181.429C165.471 181.478 165.591 181.487 165.702 181.454C165.813 181.422 165.908 181.35 165.968 181.253C166.027 181.156 166.047 181.041 166.023 180.93C166 180.82 165.935 180.722 165.841 180.656C165.769 180.609 165.712 180.56 165.671 180.508C165.638 180.463 165.621 180.409 165.624 180.354C165.627 180.299 165.649 180.247 165.686 180.205C165.723 180.164 165.774 180.136 165.83 180.126C165.885 180.117 165.943 180.125 165.993 180.152L166.484 180.438C166.556 180.479 166.639 180.496 166.722 180.484C166.804 180.473 166.88 180.435 166.937 180.377C166.994 180.318 167.029 180.243 167.036 180.162C167.043 180.082 167.022 180.001 166.976 179.934L166.788 179.648C166.562 179.311 166.639 179.065 167.021 178.909C168.6 178.266 170.272 178.153 172.037 178.57C172.281 178.628 172.418 178.779 172.448 179.022L172.833 182.489C172.868 182.825 173.047 183.057 173.369 183.184C174.329 183.578 174.984 184.25 175.336 185.2C175.622 185.368 175.774 185.58 175.792 185.835C175.798 185.893 175.771 185.91 175.712 185.887L174.934 185.539C174.683 185.429 174.505 185.499 174.397 185.748L174.004 186.686C173.989 186.725 173.987 186.767 173.996 186.807C174.005 186.848 174.026 186.885 174.056 186.914C174.086 186.943 174.124 186.963 174.165 186.972C174.207 186.981 174.25 186.978 174.29 186.964L174.809 186.765C174.916 186.718 174.978 186.753 174.996 186.869C175.044 187.263 174.865 187.44 174.46 187.399C174.386 187.393 174.311 187.402 174.241 187.425C174.17 187.448 174.106 187.485 174.051 187.533C173.996 187.581 173.953 187.64 173.923 187.705C173.893 187.77 173.878 187.841 173.879 187.912V188.372C173.876 188.59 173.959 188.758 174.116 188.848C174.272 188.939 174.493 188.948 174.745 188.874C174.996 188.799 175.263 188.646 175.506 188.438C175.749 188.23 175.953 187.977 176.087 187.721C177.118 185.745 178.528 184.074 180.316 182.706C180.531 182.544 180.772 182.475 181.041 182.498C181.386 182.521 181.571 182.666 181.595 182.932C148.423 215.893 140.993 265.079 161.361 306.347C161.394 306.416 161.445 306.475 161.51 306.517C161.575 306.559 161.65 306.583 161.728 306.586C161.806 306.589 161.884 306.57 161.951 306.533C162.019 306.495 162.075 306.44 162.112 306.373C164.24 302.784 171.751 291.036 170.803 287.238C166.064 268.337 165.107 249.506 171.5 230.858C185.77 189.25 226.497 163.849 271.758 169.602C273.421 169.819 274.377 169.367 275.719 168.576ZM111.419 220.066C112.64 220.191 113.874 220.078 115.051 219.734C116.228 219.389 117.325 218.82 118.28 218.059C119.234 217.299 120.028 216.361 120.615 215.299C121.202 214.237 121.571 213.073 121.701 211.872C121.963 209.447 121.235 207.021 119.678 205.128C118.121 203.236 115.862 202.031 113.397 201.779C112.177 201.655 110.943 201.768 109.766 202.112C108.589 202.456 107.491 203.025 106.537 203.786C105.582 204.547 104.789 205.485 104.202 206.547C103.615 207.608 103.246 208.773 103.116 209.974C102.854 212.399 103.581 214.824 105.138 216.717C106.696 218.61 108.955 219.815 111.419 220.066ZM409.634 273.699C410.86 273.705 412.075 273.472 413.21 273.013C414.345 272.553 415.378 271.877 416.249 271.022C417.121 270.167 417.814 269.15 418.289 268.03C418.764 266.909 419.012 265.707 419.018 264.492C419.025 263.277 418.79 262.072 418.327 260.947C417.864 259.821 417.182 258.798 416.32 257.934C415.458 257.07 414.432 256.383 413.302 255.912C412.172 255.441 410.96 255.196 409.734 255.19C408.508 255.183 407.293 255.417 406.158 255.876C405.023 256.335 403.99 257.012 403.119 257.867C402.247 258.722 401.554 259.738 401.079 260.859C400.604 261.979 400.356 263.181 400.349 264.397C400.343 265.612 400.578 266.817 401.041 267.942C401.504 269.067 402.186 270.091 403.048 270.955C403.91 271.819 404.936 272.506 406.066 272.976C407.196 273.447 408.408 273.693 409.634 273.699ZM367.964 364.788C367.964 363.921 367.789 363.064 367.448 362.263C367.107 361.463 366.607 360.736 365.977 360.124C365.347 359.511 364.599 359.025 363.775 358.694C362.952 358.362 362.069 358.192 361.178 358.192C360.287 358.192 359.404 358.362 358.581 358.694C357.758 359.025 357.01 359.511 356.379 360.124C355.749 360.736 355.249 361.463 354.908 362.263C354.567 363.064 354.392 363.921 354.392 364.788C354.392 365.654 354.567 366.511 354.908 367.312C355.249 368.112 355.749 368.839 356.379 369.451C357.01 370.064 357.758 370.55 358.581 370.881C359.404 371.213 360.287 371.383 361.178 371.383C362.978 371.383 364.704 370.688 365.977 369.451C367.249 368.214 367.964 366.537 367.964 364.788Z" fill="black"/>
<path d="M103.116 209.974C102.57 215.023 106.287 219.542 111.419 220.066C116.551 220.591 121.155 216.922 121.701 211.872C122.247 206.822 118.529 202.303 113.397 201.779C108.265 201.255 103.662 204.924 103.116 209.974Z" fill="#FCFBFB"/>
<path d="M400.349 264.397C400.322 269.508 404.479 273.673 409.634 273.699C414.789 273.725 418.991 269.603 419.018 264.492C419.046 259.381 414.889 255.216 409.734 255.19C404.578 255.163 400.377 259.286 400.349 264.397Z" fill="#FCFBFB"/>
<path d="M169.98 310.666L171.84 312.013C171.908 312.062 171.955 312.133 171.973 312.213C171.991 312.292 171.979 312.376 171.938 312.448L171.822 312.665C171.727 312.839 171.772 312.958 171.956 313.021C172.707 313.294 172.97 313.789 172.743 314.507C172.66 314.78 172.743 314.988 172.994 315.133L176.221 317.027C176.484 317.178 176.749 317.184 177.017 317.045C177.178 316.964 177.345 316.926 177.518 316.932C177.667 316.932 177.852 316.996 178.072 317.123C179.014 317.668 180.066 317.896 181.228 317.809C181.556 317.786 181.839 317.888 182.078 318.114L182.292 318.322C182.453 318.484 182.647 318.568 182.874 318.574L187.156 318.705C187.574 318.716 187.794 318.928 187.818 319.339C187.884 320.503 188.548 321.204 189.812 321.442C189.918 321.462 190.013 321.517 190.081 321.598C190.15 321.679 190.187 321.78 190.187 321.885C190.181 322.719 190.542 323.064 191.269 322.919C191.567 322.861 191.761 322.974 191.85 323.258C191.97 323.646 192.265 323.762 192.736 323.606C192.822 323.575 192.915 323.57 193.005 323.591C193.094 323.611 193.175 323.656 193.239 323.721C193.302 323.785 193.345 323.866 193.362 323.953C193.379 324.041 193.37 324.132 193.335 324.214C192.774 325.587 191.767 326.36 190.313 326.534C190.015 326.575 189.743 326.679 189.499 326.847C185.917 329.356 182.456 332.006 179.118 334.798C178.868 335.001 177.998 335.563 176.507 336.484C175.893 336.867 175.348 337.33 174.871 337.875C173.074 339.925 169.989 341.029 168.63 342.28C167.73 343.109 166.958 344.427 166.315 346.234L144.757 361.294C144.732 361.311 144.702 361.32 144.671 361.319C144.641 361.318 144.611 361.307 144.587 361.289C144.563 361.27 144.546 361.245 144.538 361.216C144.53 361.187 144.532 361.157 144.543 361.129C152.59 344.068 161.069 327.247 169.98 310.666Z" fill="white"/>
<path d="M361.178 371.383C364.926 371.383 367.964 368.43 367.964 364.788C367.964 361.145 364.926 358.192 361.178 358.192C357.43 358.192 354.392 361.145 354.392 364.788C354.392 368.43 357.43 371.383 361.178 371.383Z" fill="#E4E3E3"/>
<path d="M342.607 191.483C376.324 234.759 375.091 292.391 335.848 331.965C320.427 347.521 301.713 357.575 279.706 362.128C279.372 361.468 279.45 361.091 279.939 360.999C281.387 360.721 282.83 360.416 284.266 360.086C285.28 359.855 286.674 359.4 288.451 358.722C291.169 357.679 294.119 357.245 296.641 356.089C302.381 353.456 308.264 350.771 313.549 347.712C317.638 345.348 320.29 343.581 321.506 342.411C324.487 339.549 327.652 336.896 331.002 334.451C332.396 333.431 335.076 330.601 339.04 325.961C339.88 324.979 339.827 324.379 339.478 323.249C339.4 323.006 339.245 322.939 339.013 323.05L338.36 323.354C338.316 323.375 338.268 323.386 338.219 323.388C338.17 323.389 338.12 323.381 338.074 323.363C338.028 323.345 337.986 323.318 337.951 323.284C337.915 323.249 337.887 323.208 337.868 323.163C337.642 322.577 337.278 322.256 336.778 322.198C335.776 322.076 334.963 321.789 333.997 321.416C333.831 321.349 333.646 321.347 333.477 321.408C333.308 321.469 333.168 321.59 333.085 321.746C332.405 323.015 331.3 323.727 329.768 323.884C329.637 323.896 329.513 323.947 329.414 324.029C329.315 324.112 329.245 324.222 329.213 324.344C328.987 325.237 328.43 325.714 327.541 325.778C327.391 325.789 327.246 325.833 327.115 325.907C326.985 325.981 326.874 326.082 326.79 326.204C325.44 328.098 322.821 330.558 320.21 330.08C319.936 330.028 319.894 329.903 320.085 329.706C320.859 328.901 321.369 327.936 321.613 326.812C321.673 326.54 321.801 326.305 321.998 326.108C322.63 325.477 322.651 324.802 322.061 324.084C322.019 324.033 321.988 323.975 321.971 323.912C321.953 323.849 321.949 323.784 321.958 323.72C321.967 323.656 321.99 323.594 322.024 323.538C322.059 323.483 322.105 323.435 322.159 323.397C323.411 322.54 323.658 321.816 322.901 321.225C355.465 288.837 358.666 240.86 331.842 204.145C331.663 203.901 331.645 203.643 331.789 203.371L334.65 197.949L339.916 189.128C340.119 188.792 340.345 188.775 340.596 189.076L342.607 191.483Z" fill="white"/>
<path d="M322.901 321.225C323.658 321.816 323.411 322.54 322.159 323.397C322.105 323.435 322.059 323.483 322.024 323.538C321.99 323.594 321.967 323.656 321.958 323.72C321.949 323.784 321.953 323.849 321.971 323.912C321.988 323.975 322.019 324.033 322.061 324.084C322.651 324.802 322.63 325.477 321.998 326.108C321.801 326.305 321.673 326.54 321.613 326.812C321.369 327.936 320.859 328.901 320.085 329.706C319.894 329.903 319.936 330.028 320.21 330.08C322.821 330.558 325.44 328.098 326.79 326.204C326.874 326.082 326.985 325.981 327.115 325.907C327.246 325.833 327.391 325.789 327.541 325.778C328.43 325.714 328.987 325.237 329.213 324.344C329.245 324.222 329.315 324.112 329.414 324.029C329.513 323.947 329.637 323.896 329.768 323.884C331.3 323.727 332.405 323.015 333.085 321.746C333.168 321.59 333.308 321.469 333.477 321.408C333.646 321.347 333.831 321.349 333.997 321.416C334.963 321.789 335.776 322.076 336.778 322.198C337.278 322.256 337.642 322.577 337.868 323.163C337.887 323.208 337.915 323.249 337.951 323.284C337.986 323.318 338.028 323.345 338.074 323.363C338.12 323.381 338.17 323.389 338.219 323.388C338.268 323.386 338.316 323.375 338.36 323.354L339.013 323.05C339.245 322.939 339.4 323.006 339.478 323.249C339.827 324.379 339.88 324.979 339.04 325.961C335.076 330.601 332.396 333.431 331.002 334.451C327.652 336.896 324.487 339.549 321.506 342.411C320.29 343.581 317.638 345.348 313.549 347.712C308.264 350.771 302.381 353.456 296.641 356.089C294.119 357.245 291.169 357.679 288.451 358.722C286.674 359.4 285.28 359.855 284.266 360.086C282.83 360.416 281.387 360.721 279.939 360.999C279.45 361.091 279.372 361.468 279.706 362.128C246.892 368.281 214.087 359.73 188.015 339.717C187.942 339.662 187.883 339.592 187.843 339.511C187.803 339.43 187.783 339.341 187.785 339.252C187.787 339.162 187.81 339.075 187.853 338.995C187.896 338.916 187.958 338.848 188.033 338.796L201.105 329.75C201.331 329.593 201.603 329.51 201.882 329.511C202.161 329.513 202.433 329.599 202.66 329.758C239.435 355.819 290.158 352.7 322.901 321.225Z" fill="white"/>
</svg>
